<mxfile host="app.diagrams.net" modified="2021-07-28T13:45:08.623Z" agent="5.0 (Macintosh; Intel Mac OS X 10_15_7) AppleWebKit/605.1.15 (KHTML, like Gecko) Version/14.1.1 Safari/605.1.15" etag="WQ0PhdQIlTvXDjl01h7W" version="14.9.2" type="github">
  <diagram id="fKsL_EHjpqXyekMX0sga" name="Page-1">
    <mxGraphModel dx="-148" dy="393" grid="1" gridSize="10" guides="1" tooltips="1" connect="1" arrows="1" fold="1" page="1" pageScale="1" pageWidth="827" pageHeight="1169" math="0" shadow="0">
      <root>
        <mxCell id="0" />
        <mxCell id="1" parent="0" />
        <mxCell id="8RtSeTxi8FzCTflUy7ZF-2" style="edgeStyle=orthogonalEdgeStyle;rounded=0;orthogonalLoop=1;jettySize=auto;html=1;startArrow=none;startFill=0;endArrow=none;endFill=0;targetPerimeterSpacing=0;" edge="1" parent="1" source="8RtSeTxi8FzCTflUy7ZF-31" target="8RtSeTxi8FzCTflUy7ZF-4">
          <mxGeometry relative="1" as="geometry" />
        </mxCell>
        <mxCell id="8RtSeTxi8FzCTflUy7ZF-3" style="edgeStyle=orthogonalEdgeStyle;rounded=0;orthogonalLoop=1;jettySize=auto;html=1;entryX=0;entryY=0.5;entryDx=0;entryDy=0;startArrow=none;startFill=0;endArrow=none;endFill=0;targetPerimeterSpacing=0;" edge="1" parent="1" source="8RtSeTxi8FzCTflUy7ZF-4" target="8RtSeTxi8FzCTflUy7ZF-88">
          <mxGeometry relative="1" as="geometry" />
        </mxCell>
        <mxCell id="8RtSeTxi8FzCTflUy7ZF-4" value="LAVORA" style="rhombus;whiteSpace=wrap;html=1;" vertex="1" parent="1">
          <mxGeometry x="1437.5" y="285" width="120" height="80" as="geometry" />
        </mxCell>
        <mxCell id="8RtSeTxi8FzCTflUy7ZF-5" style="edgeStyle=orthogonalEdgeStyle;rounded=0;orthogonalLoop=1;jettySize=auto;html=1;entryX=1;entryY=0.5;entryDx=0;entryDy=0;startArrow=none;startFill=0;endArrow=none;endFill=0;targetPerimeterSpacing=0;exitX=0;exitY=0.5;exitDx=0;exitDy=0;" edge="1" parent="1" source="8RtSeTxi8FzCTflUy7ZF-6" target="8RtSeTxi8FzCTflUy7ZF-15">
          <mxGeometry relative="1" as="geometry" />
        </mxCell>
        <mxCell id="8RtSeTxi8FzCTflUy7ZF-6" value="ORGANIZZATO" style="rhombus;whiteSpace=wrap;html=1;" vertex="1" parent="1">
          <mxGeometry x="1105" y="285" width="120" height="80" as="geometry" />
        </mxCell>
        <mxCell id="8RtSeTxi8FzCTflUy7ZF-7" style="edgeStyle=orthogonalEdgeStyle;rounded=0;orthogonalLoop=1;jettySize=auto;html=1;entryX=1;entryY=0.5;entryDx=0;entryDy=0;startArrow=none;startFill=0;endArrow=none;endFill=0;targetPerimeterSpacing=0;exitX=0;exitY=0.5;exitDx=0;exitDy=0;" edge="1" parent="1" source="8RtSeTxi8FzCTflUy7ZF-31" target="8RtSeTxi8FzCTflUy7ZF-6">
          <mxGeometry relative="1" as="geometry">
            <mxPoint x="1345" y="325" as="sourcePoint" />
            <mxPoint x="1265" y="324.64" as="targetPoint" />
          </mxGeometry>
        </mxCell>
        <mxCell id="8RtSeTxi8FzCTflUy7ZF-8" style="edgeStyle=orthogonalEdgeStyle;rounded=0;orthogonalLoop=1;jettySize=auto;html=1;entryX=0;entryY=0.5;entryDx=0;entryDy=0;startArrow=none;startFill=0;endArrow=none;endFill=0;targetPerimeterSpacing=0;" edge="1" parent="1" source="8RtSeTxi8FzCTflUy7ZF-10" target="8RtSeTxi8FzCTflUy7ZF-91">
          <mxGeometry relative="1" as="geometry">
            <mxPoint x="1527.5" y="485" as="targetPoint" />
          </mxGeometry>
        </mxCell>
        <mxCell id="8RtSeTxi8FzCTflUy7ZF-9" style="edgeStyle=orthogonalEdgeStyle;rounded=0;orthogonalLoop=1;jettySize=auto;html=1;startArrow=none;startFill=0;endArrow=none;endFill=0;targetPerimeterSpacing=0;entryX=0.905;entryY=0.989;entryDx=0;entryDy=0;entryPerimeter=0;" edge="1" parent="1" source="8RtSeTxi8FzCTflUy7ZF-10" target="8RtSeTxi8FzCTflUy7ZF-15">
          <mxGeometry relative="1" as="geometry">
            <mxPoint x="1054" y="355" as="targetPoint" />
          </mxGeometry>
        </mxCell>
        <mxCell id="8RtSeTxi8FzCTflUy7ZF-10" value="GESTISCE" style="rhombus;whiteSpace=wrap;html=1;" vertex="1" parent="1">
          <mxGeometry x="1172.5" y="445" width="120" height="80" as="geometry" />
        </mxCell>
        <mxCell id="8RtSeTxi8FzCTflUy7ZF-11" style="edgeStyle=orthogonalEdgeStyle;rounded=0;orthogonalLoop=1;jettySize=auto;html=1;entryX=0.5;entryY=1;entryDx=0;entryDy=0;endArrow=none;endFill=0;" edge="1" parent="1" source="8RtSeTxi8FzCTflUy7ZF-13" target="8RtSeTxi8FzCTflUy7ZF-15">
          <mxGeometry relative="1" as="geometry" />
        </mxCell>
        <mxCell id="8RtSeTxi8FzCTflUy7ZF-12" style="edgeStyle=orthogonalEdgeStyle;rounded=0;orthogonalLoop=1;jettySize=auto;html=1;entryX=0;entryY=0.5;entryDx=0;entryDy=0;endArrow=none;endFill=0;" edge="1" parent="1" source="8RtSeTxi8FzCTflUy7ZF-13" target="8RtSeTxi8FzCTflUy7ZF-47">
          <mxGeometry relative="1" as="geometry" />
        </mxCell>
        <mxCell id="8RtSeTxi8FzCTflUy7ZF-13" value="DIVISO" style="rhombus;whiteSpace=wrap;html=1;" vertex="1" parent="1">
          <mxGeometry x="945" y="580" width="120" height="80" as="geometry" />
        </mxCell>
        <mxCell id="8RtSeTxi8FzCTflUy7ZF-14" value="" style="group" vertex="1" connectable="0" parent="1">
          <mxGeometry x="840" y="220" width="265" height="165" as="geometry" />
        </mxCell>
        <mxCell id="8RtSeTxi8FzCTflUy7ZF-15" value="CENTRO" style="rounded=1;whiteSpace=wrap;html=1;" vertex="1" parent="8RtSeTxi8FzCTflUy7ZF-14">
          <mxGeometry x="105" y="75" width="120" height="60" as="geometry" />
        </mxCell>
        <mxCell id="8RtSeTxi8FzCTflUy7ZF-16" style="rounded=0;orthogonalLoop=1;jettySize=auto;html=1;entryX=0.75;entryY=0;entryDx=0;entryDy=0;startArrow=oval;startFill=1;endArrow=none;endFill=0;exitX=0.5;exitY=1;exitDx=0;exitDy=0;" edge="1" parent="8RtSeTxi8FzCTflUy7ZF-14" target="8RtSeTxi8FzCTflUy7ZF-15">
          <mxGeometry relative="1" as="geometry">
            <mxPoint x="175" y="75" as="targetPoint" />
            <mxPoint x="195" y="55" as="sourcePoint" />
          </mxGeometry>
        </mxCell>
        <mxCell id="8RtSeTxi8FzCTflUy7ZF-18" value="Indirizzo&lt;br&gt;Centro" style="text;html=1;strokeColor=none;fillColor=none;align=center;verticalAlign=middle;whiteSpace=wrap;rounded=0;rotation=0;" vertex="1" parent="8RtSeTxi8FzCTflUy7ZF-14">
          <mxGeometry x="105" y="5" width="60" height="50" as="geometry" />
        </mxCell>
        <mxCell id="8RtSeTxi8FzCTflUy7ZF-19" value="Indirizzo&lt;br&gt;Centro" style="text;html=1;strokeColor=none;fillColor=none;align=center;verticalAlign=middle;whiteSpace=wrap;rounded=0;rotation=0;" vertex="1" parent="8RtSeTxi8FzCTflUy7ZF-14">
          <mxGeometry y="65" width="60" height="40" as="geometry" />
        </mxCell>
        <mxCell id="8RtSeTxi8FzCTflUy7ZF-20" value="Codice&lt;br&gt;Centro" style="text;html=1;strokeColor=none;fillColor=none;align=center;verticalAlign=middle;whiteSpace=wrap;rounded=0;" vertex="1" parent="8RtSeTxi8FzCTflUy7ZF-14">
          <mxGeometry x="10" y="105" width="50" height="40" as="geometry" />
        </mxCell>
        <mxCell id="8RtSeTxi8FzCTflUy7ZF-21" style="rounded=0;orthogonalLoop=1;jettySize=auto;html=1;startArrow=oval;startFill=0;endArrow=none;endFill=0;exitX=0.5;exitY=1;exitDx=0;exitDy=0;entryX=0.25;entryY=0;entryDx=0;entryDy=0;targetPerimeterSpacing=0;" edge="1" parent="8RtSeTxi8FzCTflUy7ZF-14" source="8RtSeTxi8FzCTflUy7ZF-18" target="8RtSeTxi8FzCTflUy7ZF-15">
          <mxGeometry relative="1" as="geometry">
            <mxPoint x="150" y="-15.480000000000018" as="sourcePoint" />
            <mxPoint x="124.99999999999977" y="75" as="targetPoint" />
          </mxGeometry>
        </mxCell>
        <mxCell id="8RtSeTxi8FzCTflUy7ZF-22" style="edgeStyle=orthogonalEdgeStyle;rounded=0;orthogonalLoop=1;jettySize=auto;html=1;startArrow=oval;startFill=1;endArrow=none;endFill=0;entryX=0;entryY=0.667;entryDx=0;entryDy=0;entryPerimeter=0;exitX=1;exitY=0.5;exitDx=0;exitDy=0;" edge="1" parent="8RtSeTxi8FzCTflUy7ZF-14" source="8RtSeTxi8FzCTflUy7ZF-20" target="8RtSeTxi8FzCTflUy7ZF-15">
          <mxGeometry relative="1" as="geometry">
            <mxPoint x="105" y="45" as="sourcePoint" />
            <mxPoint x="115" y="125" as="targetPoint" />
            <Array as="points">
              <mxPoint x="95" y="125" />
              <mxPoint x="95" y="115" />
            </Array>
          </mxGeometry>
        </mxCell>
        <mxCell id="8RtSeTxi8FzCTflUy7ZF-23" style="edgeStyle=orthogonalEdgeStyle;rounded=0;orthogonalLoop=1;jettySize=auto;html=1;startArrow=oval;startFill=0;endArrow=none;endFill=0;exitX=1;exitY=0.5;exitDx=0;exitDy=0;entryX=0;entryY=0.25;entryDx=0;entryDy=0;" edge="1" parent="8RtSeTxi8FzCTflUy7ZF-14" source="8RtSeTxi8FzCTflUy7ZF-19" target="8RtSeTxi8FzCTflUy7ZF-15">
          <mxGeometry relative="1" as="geometry">
            <mxPoint x="95" y="58" as="sourcePoint" />
            <mxPoint x="198.03999999999996" y="75" as="targetPoint" />
            <Array as="points">
              <mxPoint x="95" y="85" />
              <mxPoint x="95" y="95" />
              <mxPoint x="105" y="95" />
            </Array>
          </mxGeometry>
        </mxCell>
        <mxCell id="8RtSeTxi8FzCTflUy7ZF-24" value="(1,N)" style="text;html=1;strokeColor=none;fillColor=none;align=center;verticalAlign=middle;whiteSpace=wrap;rounded=0;" vertex="1" parent="8RtSeTxi8FzCTflUy7ZF-14">
          <mxGeometry x="225" y="75" width="40" height="30" as="geometry" />
        </mxCell>
        <mxCell id="8RtSeTxi8FzCTflUy7ZF-27" value="(1,1)" style="text;html=1;strokeColor=none;fillColor=none;align=center;verticalAlign=middle;whiteSpace=wrap;rounded=0;" vertex="1" parent="8RtSeTxi8FzCTflUy7ZF-14">
          <mxGeometry x="215" y="135" width="40" height="30" as="geometry" />
        </mxCell>
        <mxCell id="8RtSeTxi8FzCTflUy7ZF-28" value="(1,N)" style="text;html=1;strokeColor=none;fillColor=none;align=center;verticalAlign=middle;whiteSpace=wrap;rounded=0;" vertex="1" parent="8RtSeTxi8FzCTflUy7ZF-14">
          <mxGeometry x="165" y="135" width="40" height="30" as="geometry" />
        </mxCell>
        <mxCell id="8RtSeTxi8FzCTflUy7ZF-29" value="" style="group" vertex="1" connectable="0" parent="1">
          <mxGeometry x="1225" y="230" width="212.5" height="125" as="geometry" />
        </mxCell>
        <mxCell id="8RtSeTxi8FzCTflUy7ZF-30" value="" style="group" vertex="1" connectable="0" parent="8RtSeTxi8FzCTflUy7ZF-29">
          <mxGeometry x="32.5" width="150" height="125" as="geometry" />
        </mxCell>
        <mxCell id="8RtSeTxi8FzCTflUy7ZF-31" value="TURNO" style="rounded=1;whiteSpace=wrap;html=1;" vertex="1" parent="8RtSeTxi8FzCTflUy7ZF-30">
          <mxGeometry x="17.5" y="65" width="120" height="60" as="geometry" />
        </mxCell>
        <mxCell id="8RtSeTxi8FzCTflUy7ZF-32" value="Data&lt;br&gt;Inizio" style="text;html=1;strokeColor=none;fillColor=none;align=center;verticalAlign=middle;whiteSpace=wrap;rounded=0;rotation=0;" vertex="1" parent="8RtSeTxi8FzCTflUy7ZF-30">
          <mxGeometry x="30" width="40" height="45" as="geometry" />
        </mxCell>
        <mxCell id="8RtSeTxi8FzCTflUy7ZF-33" style="rounded=0;orthogonalLoop=1;jettySize=auto;html=1;startArrow=oval;startFill=0;endArrow=none;endFill=0;entryX=0.25;entryY=0;entryDx=0;entryDy=0;targetPerimeterSpacing=0;exitX=0.5;exitY=1;exitDx=0;exitDy=0;" edge="1" parent="8RtSeTxi8FzCTflUy7ZF-30" source="8RtSeTxi8FzCTflUy7ZF-32">
          <mxGeometry relative="1" as="geometry">
            <mxPoint x="30" y="55" as="sourcePoint" />
            <mxPoint x="50" y="65" as="targetPoint" />
          </mxGeometry>
        </mxCell>
        <mxCell id="8RtSeTxi8FzCTflUy7ZF-34" value="Data&lt;br&gt;Fine" style="text;html=1;strokeColor=none;fillColor=none;align=center;verticalAlign=middle;whiteSpace=wrap;rounded=0;rotation=0;" vertex="1" parent="8RtSeTxi8FzCTflUy7ZF-30">
          <mxGeometry x="97.5" width="60" height="45" as="geometry" />
        </mxCell>
        <mxCell id="8RtSeTxi8FzCTflUy7ZF-35" style="rounded=0;orthogonalLoop=1;jettySize=auto;html=1;startArrow=oval;startFill=0;endArrow=none;endFill=0;targetPerimeterSpacing=0;entryX=0.75;entryY=0;entryDx=0;entryDy=0;exitX=0.5;exitY=1;exitDx=0;exitDy=0;" edge="1" parent="8RtSeTxi8FzCTflUy7ZF-30" source="8RtSeTxi8FzCTflUy7ZF-34">
          <mxGeometry relative="1" as="geometry">
            <mxPoint x="187.5" y="45" as="sourcePoint" />
            <mxPoint x="127.5" y="65" as="targetPoint" />
          </mxGeometry>
        </mxCell>
        <mxCell id="8RtSeTxi8FzCTflUy7ZF-36" value="Carica" style="text;html=1;strokeColor=none;fillColor=none;align=center;verticalAlign=middle;whiteSpace=wrap;rounded=0;rotation=0;" vertex="1" parent="8RtSeTxi8FzCTflUy7ZF-30">
          <mxGeometry x="70" y="10" width="40" height="35" as="geometry" />
        </mxCell>
        <mxCell id="8RtSeTxi8FzCTflUy7ZF-37" style="rounded=0;orthogonalLoop=1;jettySize=auto;html=1;startArrow=oval;startFill=0;endArrow=none;endFill=0;entryX=0.25;entryY=0;entryDx=0;entryDy=0;targetPerimeterSpacing=0;exitX=0.5;exitY=1;exitDx=0;exitDy=0;" edge="1" parent="8RtSeTxi8FzCTflUy7ZF-30" source="8RtSeTxi8FzCTflUy7ZF-36">
          <mxGeometry relative="1" as="geometry">
            <mxPoint x="70" y="55" as="sourcePoint" />
            <mxPoint x="90" y="65" as="targetPoint" />
          </mxGeometry>
        </mxCell>
        <mxCell id="8RtSeTxi8FzCTflUy7ZF-38" value="ID Turno" style="text;html=1;strokeColor=none;fillColor=none;align=center;verticalAlign=middle;whiteSpace=wrap;rounded=0;rotation=0;" vertex="1" parent="8RtSeTxi8FzCTflUy7ZF-30">
          <mxGeometry x="-10" y="5" width="40" height="40" as="geometry" />
        </mxCell>
        <mxCell id="8RtSeTxi8FzCTflUy7ZF-39" style="rounded=0;orthogonalLoop=1;jettySize=auto;html=1;startArrow=oval;startFill=1;endArrow=none;endFill=0;entryX=0.137;entryY=-0.013;entryDx=0;entryDy=0;targetPerimeterSpacing=0;exitX=0.5;exitY=1;exitDx=0;exitDy=0;entryPerimeter=0;edgeStyle=orthogonalEdgeStyle;" edge="1" parent="8RtSeTxi8FzCTflUy7ZF-30" source="8RtSeTxi8FzCTflUy7ZF-38" target="8RtSeTxi8FzCTflUy7ZF-31">
          <mxGeometry relative="1" as="geometry">
            <mxPoint x="177.33000000000015" y="7.5" as="sourcePoint" />
            <mxPoint x="177.33000000000015" y="27.5" as="targetPoint" />
            <Array as="points">
              <mxPoint x="10" y="60" />
              <mxPoint x="34" y="60" />
            </Array>
          </mxGeometry>
        </mxCell>
        <mxCell id="8RtSeTxi8FzCTflUy7ZF-40" value="(1,1)" style="text;html=1;strokeColor=none;fillColor=none;align=center;verticalAlign=middle;whiteSpace=wrap;rounded=0;" vertex="1" parent="8RtSeTxi8FzCTflUy7ZF-29">
          <mxGeometry y="70" width="40" height="25" as="geometry" />
        </mxCell>
        <mxCell id="8RtSeTxi8FzCTflUy7ZF-41" value="(1,N)" style="text;html=1;strokeColor=none;fillColor=none;align=center;verticalAlign=middle;whiteSpace=wrap;rounded=0;" vertex="1" parent="8RtSeTxi8FzCTflUy7ZF-29">
          <mxGeometry x="172.5" y="70" width="40" height="25" as="geometry" />
        </mxCell>
        <mxCell id="8RtSeTxi8FzCTflUy7ZF-42" value="(0,1)" style="text;html=1;strokeColor=none;fillColor=none;align=center;verticalAlign=middle;whiteSpace=wrap;rounded=0;" vertex="1" parent="8RtSeTxi8FzCTflUy7ZF-29">
          <mxGeometry x="160" y="40" width="30" height="25" as="geometry" />
        </mxCell>
        <mxCell id="8RtSeTxi8FzCTflUy7ZF-43" style="edgeStyle=orthogonalEdgeStyle;rounded=0;orthogonalLoop=1;jettySize=auto;html=1;entryX=1;entryY=0.5;entryDx=0;entryDy=0;endArrow=none;endFill=0;exitX=0;exitY=0.5;exitDx=0;exitDy=0;" edge="1" parent="1" source="8RtSeTxi8FzCTflUy7ZF-69" target="8RtSeTxi8FzCTflUy7ZF-47">
          <mxGeometry relative="1" as="geometry" />
        </mxCell>
        <mxCell id="8RtSeTxi8FzCTflUy7ZF-44" style="edgeStyle=orthogonalEdgeStyle;rounded=0;orthogonalLoop=1;jettySize=auto;html=1;entryX=0;entryY=0.5;entryDx=0;entryDy=0;endArrow=none;endFill=0;exitX=1;exitY=0.5;exitDx=0;exitDy=0;" edge="1" parent="1" source="8RtSeTxi8FzCTflUy7ZF-69" target="8RtSeTxi8FzCTflUy7ZF-61">
          <mxGeometry relative="1" as="geometry" />
        </mxCell>
        <mxCell id="8RtSeTxi8FzCTflUy7ZF-45" value="" style="group" vertex="1" connectable="0" parent="1">
          <mxGeometry x="1077.5" y="590" width="212.5" height="130" as="geometry" />
        </mxCell>
        <mxCell id="8RtSeTxi8FzCTflUy7ZF-46" value="" style="group" vertex="1" connectable="0" parent="8RtSeTxi8FzCTflUy7ZF-45">
          <mxGeometry width="172.5" height="130" as="geometry" />
        </mxCell>
        <mxCell id="8RtSeTxi8FzCTflUy7ZF-47" value="SETTORE" style="rounded=1;whiteSpace=wrap;html=1;" vertex="1" parent="8RtSeTxi8FzCTflUy7ZF-46">
          <mxGeometry x="52.5" width="120" height="60" as="geometry" />
        </mxCell>
        <mxCell id="8RtSeTxi8FzCTflUy7ZF-48" value="Codice&lt;br&gt;Settore" style="text;html=1;strokeColor=none;fillColor=none;align=center;verticalAlign=middle;whiteSpace=wrap;rounded=0;rotation=0;" vertex="1" parent="8RtSeTxi8FzCTflUy7ZF-46">
          <mxGeometry x="52.5" y="80" width="60" height="50" as="geometry" />
        </mxCell>
        <mxCell id="8RtSeTxi8FzCTflUy7ZF-49" style="rounded=0;orthogonalLoop=1;jettySize=auto;html=1;startArrow=oval;startFill=0;endArrow=none;endFill=0;exitX=0.5;exitY=0;exitDx=0;exitDy=0;entryX=0.25;entryY=0;entryDx=0;entryDy=0;sourcePerimeterSpacing=0;" edge="1" parent="8RtSeTxi8FzCTflUy7ZF-46" source="8RtSeTxi8FzCTflUy7ZF-48">
          <mxGeometry relative="1" as="geometry">
            <mxPoint x="82.15999999999997" y="80" as="sourcePoint" />
            <mxPoint x="82.15999999999997" y="60" as="targetPoint" />
          </mxGeometry>
        </mxCell>
        <mxCell id="8RtSeTxi8FzCTflUy7ZF-50" style="rounded=0;orthogonalLoop=1;jettySize=auto;html=1;startArrow=oval;startFill=1;endArrow=none;endFill=0;edgeStyle=orthogonalEdgeStyle;" edge="1" parent="8RtSeTxi8FzCTflUy7ZF-46">
          <mxGeometry relative="1" as="geometry">
            <mxPoint x="102.5" y="70" as="targetPoint" />
            <mxPoint x="42.5" y="10" as="sourcePoint" />
            <Array as="points">
              <mxPoint x="42.5" y="70" />
              <mxPoint x="102.5" y="70" />
            </Array>
          </mxGeometry>
        </mxCell>
        <mxCell id="8RtSeTxi8FzCTflUy7ZF-51" value="(1,1)" style="text;html=1;strokeColor=none;fillColor=none;align=center;verticalAlign=middle;whiteSpace=wrap;rounded=0;" vertex="1" parent="8RtSeTxi8FzCTflUy7ZF-46">
          <mxGeometry width="40" height="30" as="geometry" />
        </mxCell>
        <mxCell id="8RtSeTxi8FzCTflUy7ZF-52" value="(0,N)" style="text;html=1;strokeColor=none;fillColor=none;align=center;verticalAlign=middle;whiteSpace=wrap;rounded=0;" vertex="1" parent="8RtSeTxi8FzCTflUy7ZF-45">
          <mxGeometry x="172.5" width="40" height="30" as="geometry" />
        </mxCell>
        <mxCell id="8RtSeTxi8FzCTflUy7ZF-53" style="edgeStyle=orthogonalEdgeStyle;rounded=0;orthogonalLoop=1;jettySize=auto;html=1;entryX=0.5;entryY=1;entryDx=0;entryDy=0;startArrow=none;startFill=0;endArrow=none;endFill=0;exitX=0.5;exitY=0;exitDx=0;exitDy=0;" edge="1" parent="1" source="8RtSeTxi8FzCTflUy7ZF-98" target="8RtSeTxi8FzCTflUy7ZF-55">
          <mxGeometry relative="1" as="geometry" />
        </mxCell>
        <mxCell id="8RtSeTxi8FzCTflUy7ZF-54" style="edgeStyle=orthogonalEdgeStyle;rounded=0;orthogonalLoop=1;jettySize=auto;html=1;entryX=0.75;entryY=1;entryDx=0;entryDy=0;startArrow=none;startFill=0;endArrow=none;endFill=0;exitX=0.5;exitY=0;exitDx=0;exitDy=0;" edge="1" parent="1" source="8RtSeTxi8FzCTflUy7ZF-55" target="8RtSeTxi8FzCTflUy7ZF-61">
          <mxGeometry relative="1" as="geometry" />
        </mxCell>
        <mxCell id="8RtSeTxi8FzCTflUy7ZF-55" value="COPIA" style="rhombus;whiteSpace=wrap;html=1;" vertex="1" parent="1">
          <mxGeometry x="1537.5" y="710" width="120" height="80" as="geometry" />
        </mxCell>
        <mxCell id="8RtSeTxi8FzCTflUy7ZF-56" style="edgeStyle=orthogonalEdgeStyle;rounded=0;orthogonalLoop=1;jettySize=auto;html=1;entryX=0.25;entryY=0;entryDx=0;entryDy=0;startArrow=none;startFill=0;endArrow=none;endFill=0;exitX=1;exitY=0.5;exitDx=0;exitDy=0;" edge="1" parent="1" source="8RtSeTxi8FzCTflUy7ZF-58" target="8RtSeTxi8FzCTflUy7ZF-98">
          <mxGeometry relative="1" as="geometry" />
        </mxCell>
        <mxCell id="8RtSeTxi8FzCTflUy7ZF-57" style="edgeStyle=orthogonalEdgeStyle;rounded=0;orthogonalLoop=1;jettySize=auto;html=1;entryX=0;entryY=0.25;entryDx=0;entryDy=0;startArrow=none;startFill=0;endArrow=none;endFill=0;exitX=0.5;exitY=1;exitDx=0;exitDy=0;" edge="1" parent="1" source="8RtSeTxi8FzCTflUy7ZF-58" target="8RtSeTxi8FzCTflUy7ZF-98">
          <mxGeometry relative="1" as="geometry" />
        </mxCell>
        <mxCell id="8RtSeTxi8FzCTflUy7ZF-58" value="REMAKE" style="rhombus;whiteSpace=wrap;html=1;" vertex="1" parent="1">
          <mxGeometry x="1397.5" y="760" width="120" height="80" as="geometry" />
        </mxCell>
        <mxCell id="8RtSeTxi8FzCTflUy7ZF-59" style="edgeStyle=orthogonalEdgeStyle;rounded=0;orthogonalLoop=1;jettySize=auto;html=1;entryX=1;entryY=0.5;entryDx=0;entryDy=0;endArrow=none;endFill=0;exitX=0;exitY=0.5;exitDx=0;exitDy=0;" edge="1" parent="1" source="8RtSeTxi8FzCTflUy7ZF-75" target="8RtSeTxi8FzCTflUy7ZF-61">
          <mxGeometry relative="1" as="geometry">
            <mxPoint x="1627.5" y="620" as="targetPoint" />
          </mxGeometry>
        </mxCell>
        <mxCell id="8RtSeTxi8FzCTflUy7ZF-60" value="" style="group" vertex="1" connectable="0" parent="1">
          <mxGeometry x="1467.5" y="590" width="200" height="120" as="geometry" />
        </mxCell>
        <mxCell id="8RtSeTxi8FzCTflUy7ZF-61" value="COPIA FILM" style="rounded=1;whiteSpace=wrap;html=1;" vertex="1" parent="8RtSeTxi8FzCTflUy7ZF-60">
          <mxGeometry x="40" width="120" height="60" as="geometry" />
        </mxCell>
        <mxCell id="8RtSeTxi8FzCTflUy7ZF-62" value="ID Copia" style="text;html=1;strokeColor=none;fillColor=none;align=center;verticalAlign=middle;whiteSpace=wrap;rounded=0;rotation=0;" vertex="1" parent="8RtSeTxi8FzCTflUy7ZF-60">
          <mxGeometry x="40" y="80" width="60" height="40" as="geometry" />
        </mxCell>
        <mxCell id="8RtSeTxi8FzCTflUy7ZF-63" style="rounded=0;orthogonalLoop=1;jettySize=auto;html=1;startArrow=oval;startFill=0;endArrow=none;endFill=0;exitX=0.5;exitY=0;exitDx=0;exitDy=0;sourcePerimeterSpacing=0;entryX=0.25;entryY=1;entryDx=0;entryDy=0;" edge="1" parent="8RtSeTxi8FzCTflUy7ZF-60" source="8RtSeTxi8FzCTflUy7ZF-62" target="8RtSeTxi8FzCTflUy7ZF-61">
          <mxGeometry relative="1" as="geometry">
            <mxPoint x="-190.34000000000003" y="280" as="sourcePoint" />
            <mxPoint x="100" y="70" as="targetPoint" />
          </mxGeometry>
        </mxCell>
        <mxCell id="8RtSeTxi8FzCTflUy7ZF-64" value="" style="endArrow=none;html=1;startArrow=oval;startFill=1;" edge="1" parent="8RtSeTxi8FzCTflUy7ZF-60">
          <mxGeometry width="50" height="50" relative="1" as="geometry">
            <mxPoint x="50" y="70" as="sourcePoint" />
            <mxPoint x="150" y="70" as="targetPoint" />
          </mxGeometry>
        </mxCell>
        <mxCell id="8RtSeTxi8FzCTflUy7ZF-65" value="(1,1)" style="text;html=1;strokeColor=none;fillColor=none;align=center;verticalAlign=middle;whiteSpace=wrap;rounded=0;" vertex="1" parent="8RtSeTxi8FzCTflUy7ZF-60">
          <mxGeometry x="130" y="70" width="40" height="30" as="geometry" />
        </mxCell>
        <mxCell id="8RtSeTxi8FzCTflUy7ZF-66" value="(1,N)" style="text;html=1;strokeColor=none;fillColor=none;align=center;verticalAlign=middle;whiteSpace=wrap;rounded=0;" vertex="1" parent="8RtSeTxi8FzCTflUy7ZF-60">
          <mxGeometry width="40" height="30" as="geometry" />
        </mxCell>
        <mxCell id="8RtSeTxi8FzCTflUy7ZF-67" value="(0,N)" style="text;html=1;strokeColor=none;fillColor=none;align=center;verticalAlign=middle;whiteSpace=wrap;rounded=0;" vertex="1" parent="8RtSeTxi8FzCTflUy7ZF-60">
          <mxGeometry x="160" width="40" height="30" as="geometry" />
        </mxCell>
        <mxCell id="8RtSeTxi8FzCTflUy7ZF-68" value="" style="group" vertex="1" connectable="0" parent="1">
          <mxGeometry x="1301.25" y="580" width="151.25" height="120" as="geometry" />
        </mxCell>
        <mxCell id="8RtSeTxi8FzCTflUy7ZF-69" value="COLLOCATO" style="rhombus;whiteSpace=wrap;html=1;" vertex="1" parent="8RtSeTxi8FzCTflUy7ZF-68">
          <mxGeometry x="16.25" width="120" height="80" as="geometry" />
        </mxCell>
        <mxCell id="8RtSeTxi8FzCTflUy7ZF-70" value="Numero&lt;br&gt;Copie" style="text;html=1;strokeColor=none;fillColor=none;align=center;verticalAlign=middle;whiteSpace=wrap;rounded=0;rotation=0;" vertex="1" parent="8RtSeTxi8FzCTflUy7ZF-68">
          <mxGeometry x="91.25" y="70" width="60" height="50" as="geometry" />
        </mxCell>
        <mxCell id="8RtSeTxi8FzCTflUy7ZF-71" style="rounded=0;orthogonalLoop=1;jettySize=auto;html=1;startArrow=oval;startFill=0;endArrow=none;endFill=0;exitX=0.5;exitY=0;exitDx=0;exitDy=0;entryX=1;entryY=1;entryDx=0;entryDy=0;sourcePerimeterSpacing=0;" edge="1" parent="8RtSeTxi8FzCTflUy7ZF-68" source="8RtSeTxi8FzCTflUy7ZF-70" target="8RtSeTxi8FzCTflUy7ZF-69">
          <mxGeometry relative="1" as="geometry">
            <mxPoint x="-174.09000000000003" y="320" as="sourcePoint" />
            <mxPoint x="85.90999999999985" y="100" as="targetPoint" />
          </mxGeometry>
        </mxCell>
        <mxCell id="8RtSeTxi8FzCTflUy7ZF-72" value="Posizione" style="text;html=1;strokeColor=none;fillColor=none;align=center;verticalAlign=middle;whiteSpace=wrap;rounded=0;rotation=0;" vertex="1" parent="8RtSeTxi8FzCTflUy7ZF-68">
          <mxGeometry y="70" width="60" height="50" as="geometry" />
        </mxCell>
        <mxCell id="8RtSeTxi8FzCTflUy7ZF-73" style="rounded=0;orthogonalLoop=1;jettySize=auto;html=1;startArrow=oval;startFill=0;endArrow=none;endFill=0;exitX=0.5;exitY=0;exitDx=0;exitDy=0;entryX=0;entryY=1;entryDx=0;entryDy=0;sourcePerimeterSpacing=0;" edge="1" parent="8RtSeTxi8FzCTflUy7ZF-68" source="8RtSeTxi8FzCTflUy7ZF-72" target="8RtSeTxi8FzCTflUy7ZF-69">
          <mxGeometry relative="1" as="geometry">
            <mxPoint x="-254.09000000000003" y="310" as="sourcePoint" />
            <mxPoint x="5.9099999999998545" y="90" as="targetPoint" />
          </mxGeometry>
        </mxCell>
        <mxCell id="8RtSeTxi8FzCTflUy7ZF-74" style="edgeStyle=none;rounded=0;orthogonalLoop=1;jettySize=auto;html=1;entryX=0;entryY=0.5;entryDx=0;entryDy=0;startArrow=none;startFill=0;endArrow=none;endFill=0;fillColor=#000000;exitX=1;exitY=0.5;exitDx=0;exitDy=0;" edge="1" parent="1" source="8RtSeTxi8FzCTflUy7ZF-75">
          <mxGeometry relative="1" as="geometry">
            <mxPoint x="1815" y="620" as="sourcePoint" />
            <mxPoint x="1880" y="620" as="targetPoint" />
          </mxGeometry>
        </mxCell>
        <mxCell id="8RtSeTxi8FzCTflUy7ZF-75" value="PRESO" style="rhombus;whiteSpace=wrap;html=1;" vertex="1" parent="1">
          <mxGeometry x="1695" y="580" width="120" height="80" as="geometry" />
        </mxCell>
        <mxCell id="8RtSeTxi8FzCTflUy7ZF-77" value="" style="group" vertex="1" connectable="0" parent="1">
          <mxGeometry x="1557.5" y="220" width="260" height="180" as="geometry" />
        </mxCell>
        <mxCell id="8RtSeTxi8FzCTflUy7ZF-78" value="(0,N)" style="text;html=1;strokeColor=none;fillColor=none;align=center;verticalAlign=middle;whiteSpace=wrap;rounded=0;" vertex="1" parent="8RtSeTxi8FzCTflUy7ZF-77">
          <mxGeometry y="80" width="40" height="25" as="geometry" />
        </mxCell>
        <mxCell id="8RtSeTxi8FzCTflUy7ZF-79" value="(0,1)" style="text;html=1;strokeColor=none;fillColor=none;align=center;verticalAlign=middle;whiteSpace=wrap;rounded=0;" vertex="1" parent="8RtSeTxi8FzCTflUy7ZF-77">
          <mxGeometry x="60" y="135" width="40" height="25" as="geometry" />
        </mxCell>
        <mxCell id="8RtSeTxi8FzCTflUy7ZF-80" style="rounded=0;orthogonalLoop=1;jettySize=auto;html=1;entryX=0.75;entryY=0;entryDx=0;entryDy=0;startArrow=oval;startFill=1;endArrow=none;endFill=0;exitX=0.5;exitY=1;exitDx=0;exitDy=0;" edge="1" parent="8RtSeTxi8FzCTflUy7ZF-77" source="8RtSeTxi8FzCTflUy7ZF-81">
          <mxGeometry x="-73" as="geometry">
            <mxPoint x="70" y="75" as="targetPoint" />
          </mxGeometry>
        </mxCell>
        <mxCell id="8RtSeTxi8FzCTflUy7ZF-81" value="CF&lt;br&gt;Impiegato" style="text;html=1;strokeColor=none;fillColor=none;align=center;verticalAlign=middle;whiteSpace=wrap;rounded=0;labelPosition=center;verticalLabelPosition=middle;rotation=0;direction=east;" vertex="1" parent="8RtSeTxi8FzCTflUy7ZF-77">
          <mxGeometry x="40" width="60" height="55" as="geometry" />
        </mxCell>
        <mxCell id="8RtSeTxi8FzCTflUy7ZF-82" style="rounded=0;orthogonalLoop=1;jettySize=auto;html=1;startArrow=oval;startFill=0;endArrow=none;endFill=0;exitX=0.5;exitY=1;exitDx=0;exitDy=0;entryX=0.25;entryY=0;entryDx=0;entryDy=0;targetPerimeterSpacing=0;" edge="1" parent="8RtSeTxi8FzCTflUy7ZF-77" source="8RtSeTxi8FzCTflUy7ZF-83">
          <mxGeometry x="-73" as="geometry">
            <mxPoint x="145" y="-15.480000000000018" as="sourcePoint" />
            <mxPoint x="130" y="75" as="targetPoint" />
          </mxGeometry>
        </mxCell>
        <mxCell id="8RtSeTxi8FzCTflUy7ZF-83" value="Nome&lt;br&gt;Impiegato" style="text;html=1;strokeColor=none;fillColor=none;align=center;verticalAlign=middle;whiteSpace=wrap;rounded=0;rotation=0;" vertex="1" parent="8RtSeTxi8FzCTflUy7ZF-77">
          <mxGeometry x="100" y="5" width="60" height="50" as="geometry" />
        </mxCell>
        <mxCell id="8RtSeTxi8FzCTflUy7ZF-84" value="Titolo di&lt;br&gt;studio" style="text;html=1;strokeColor=none;fillColor=none;align=center;verticalAlign=middle;whiteSpace=wrap;rounded=0;rotation=0;" vertex="1" parent="8RtSeTxi8FzCTflUy7ZF-77">
          <mxGeometry x="200" y="65" width="55" height="40" as="geometry" />
        </mxCell>
        <mxCell id="8RtSeTxi8FzCTflUy7ZF-85" value="Recapito" style="text;html=1;strokeColor=none;fillColor=none;align=center;verticalAlign=middle;whiteSpace=wrap;rounded=0;" vertex="1" parent="8RtSeTxi8FzCTflUy7ZF-77">
          <mxGeometry x="200" y="105" width="60" height="40" as="geometry" />
        </mxCell>
        <mxCell id="8RtSeTxi8FzCTflUy7ZF-86" style="rounded=0;orthogonalLoop=1;jettySize=auto;html=1;startArrow=oval;startFill=0;endArrow=none;endFill=0;entryX=1;entryY=0.75;entryDx=0;entryDy=0;exitX=-0.024;exitY=0.507;exitDx=0;exitDy=0;exitPerimeter=0;edgeStyle=orthogonalEdgeStyle;" edge="1" parent="8RtSeTxi8FzCTflUy7ZF-77" source="8RtSeTxi8FzCTflUy7ZF-85" target="8RtSeTxi8FzCTflUy7ZF-88">
          <mxGeometry x="-73" as="geometry">
            <mxPoint x="345" y="15" as="sourcePoint" />
            <mxPoint x="345" y="85.01999999999998" as="targetPoint" />
            <Array as="points">
              <mxPoint x="180" y="125" />
              <mxPoint x="180" y="120" />
            </Array>
          </mxGeometry>
        </mxCell>
        <mxCell id="8RtSeTxi8FzCTflUy7ZF-87" style="rounded=0;orthogonalLoop=1;jettySize=auto;html=1;startArrow=oval;startFill=0;endArrow=none;endFill=0;exitX=0;exitY=0.5;exitDx=0;exitDy=0;edgeStyle=orthogonalEdgeStyle;" edge="1" parent="8RtSeTxi8FzCTflUy7ZF-77" source="8RtSeTxi8FzCTflUy7ZF-84">
          <mxGeometry x="-73" as="geometry">
            <mxPoint x="335" y="28" as="sourcePoint" />
            <mxPoint x="160" y="90" as="targetPoint" />
          </mxGeometry>
        </mxCell>
        <mxCell id="8RtSeTxi8FzCTflUy7ZF-88" value="IMPIEGATO" style="rounded=1;whiteSpace=wrap;html=1;" vertex="1" parent="8RtSeTxi8FzCTflUy7ZF-77">
          <mxGeometry x="40" y="75" width="120" height="60" as="geometry" />
        </mxCell>
        <mxCell id="8RtSeTxi8FzCTflUy7ZF-89" value="Ruolo" style="text;html=1;strokeColor=none;fillColor=none;align=center;verticalAlign=middle;whiteSpace=wrap;rounded=0;rotation=0;" vertex="1" parent="8RtSeTxi8FzCTflUy7ZF-77">
          <mxGeometry x="113.75" y="150" width="32.5" height="30" as="geometry" />
        </mxCell>
        <mxCell id="8RtSeTxi8FzCTflUy7ZF-90" style="rounded=0;orthogonalLoop=1;jettySize=auto;html=1;startArrow=none;startFill=0;endArrow=oval;endFill=0;exitX=0.5;exitY=1;exitDx=0;exitDy=0;entryX=0.25;entryY=0;entryDx=0;entryDy=0;targetPerimeterSpacing=0;" edge="1" parent="8RtSeTxi8FzCTflUy7ZF-77">
          <mxGeometry x="-73" y="80" as="geometry">
            <mxPoint x="130" y="135" as="sourcePoint" />
            <mxPoint x="130" y="155" as="targetPoint" />
          </mxGeometry>
        </mxCell>
        <mxCell id="8RtSeTxi8FzCTflUy7ZF-91" value="RESPONSABILE" style="rounded=1;whiteSpace=wrap;html=1;" vertex="1" parent="1">
          <mxGeometry x="1377.5" y="455" width="120" height="60" as="geometry" />
        </mxCell>
        <mxCell id="8RtSeTxi8FzCTflUy7ZF-92" value="(1,1)" style="text;html=1;strokeColor=none;fillColor=none;align=center;verticalAlign=middle;whiteSpace=wrap;rounded=0;" vertex="1" parent="1">
          <mxGeometry x="1337.5" y="460.22" width="40" height="25" as="geometry" />
        </mxCell>
        <mxCell id="8RtSeTxi8FzCTflUy7ZF-93" style="edgeStyle=orthogonalEdgeStyle;rounded=0;orthogonalLoop=1;jettySize=auto;html=1;entryX=1;entryY=0.5;entryDx=0;entryDy=0;shadow=0;startArrow=none;startFill=0;endArrow=none;endFill=0;fillColor=#000000;exitX=0;exitY=0.5;exitDx=0;exitDy=0;" edge="1" parent="1" source="8RtSeTxi8FzCTflUy7ZF-95" target="8RtSeTxi8FzCTflUy7ZF-91">
          <mxGeometry relative="1" as="geometry" />
        </mxCell>
        <mxCell id="8RtSeTxi8FzCTflUy7ZF-94" style="edgeStyle=orthogonalEdgeStyle;rounded=0;orthogonalLoop=1;jettySize=auto;html=1;entryX=0.5;entryY=1;entryDx=0;entryDy=0;shadow=0;startArrow=none;startFill=0;endArrow=none;endFill=0;fillColor=#000000;exitX=0.5;exitY=0;exitDx=0;exitDy=0;" edge="1" parent="1" source="8RtSeTxi8FzCTflUy7ZF-95" target="8RtSeTxi8FzCTflUy7ZF-88">
          <mxGeometry relative="1" as="geometry" />
        </mxCell>
        <mxCell id="8RtSeTxi8FzCTflUy7ZF-95" value="SVOLGE" style="rhombus;whiteSpace=wrap;html=1;" vertex="1" parent="1">
          <mxGeometry x="1597.5" y="445" width="120" height="80" as="geometry" />
        </mxCell>
        <mxCell id="8RtSeTxi8FzCTflUy7ZF-96" value="(1,1)" style="text;html=1;strokeColor=none;fillColor=none;align=center;verticalAlign=middle;whiteSpace=wrap;rounded=0;" vertex="1" parent="1">
          <mxGeometry x="1504.5" y="460.22" width="40" height="25" as="geometry" />
        </mxCell>
        <mxCell id="8RtSeTxi8FzCTflUy7ZF-97" style="rounded=0;orthogonalLoop=1;jettySize=auto;html=1;startArrow=oval;startFill=1;endArrow=none;endFill=0;exitX=0.5;exitY=1;exitDx=0;exitDy=0;" edge="1" parent="1">
          <mxGeometry x="-686" y="155" as="geometry">
            <mxPoint x="1505" y="510" as="targetPoint" />
            <mxPoint x="1504.5" y="460" as="sourcePoint" />
          </mxGeometry>
        </mxCell>
        <mxCell id="8RtSeTxi8FzCTflUy7ZF-160" style="edgeStyle=orthogonalEdgeStyle;rounded=0;orthogonalLoop=1;jettySize=auto;html=1;entryX=0;entryY=0.5;entryDx=0;entryDy=0;endArrow=none;endFill=0;" edge="1" parent="1" source="8RtSeTxi8FzCTflUy7ZF-98" target="8RtSeTxi8FzCTflUy7ZF-159">
          <mxGeometry relative="1" as="geometry" />
        </mxCell>
        <mxCell id="8RtSeTxi8FzCTflUy7ZF-98" value="FILM" style="rounded=1;whiteSpace=wrap;html=1;" vertex="1" parent="1">
          <mxGeometry x="1537.5" y="850" width="120" height="60" as="geometry" />
        </mxCell>
        <mxCell id="8RtSeTxi8FzCTflUy7ZF-99" value="(1,N)" style="text;html=1;strokeColor=none;fillColor=none;align=center;verticalAlign=middle;whiteSpace=wrap;rounded=0;" vertex="1" parent="1">
          <mxGeometry x="1597.5" y="820" width="30" height="30" as="geometry" />
        </mxCell>
        <mxCell id="8RtSeTxi8FzCTflUy7ZF-100" value="" style="group;align=right;" vertex="1" connectable="0" parent="1">
          <mxGeometry x="1477.5" y="850" width="60" height="30" as="geometry" />
        </mxCell>
        <mxCell id="8RtSeTxi8FzCTflUy7ZF-101" value="Remake" style="text;html=1;strokeColor=none;fillColor=none;align=right;verticalAlign=middle;whiteSpace=wrap;rounded=0;spacing=2;horizontal=1;spacingTop=0;" vertex="1" parent="8RtSeTxi8FzCTflUy7ZF-100">
          <mxGeometry width="60" height="15" as="geometry" />
        </mxCell>
        <mxCell id="8RtSeTxi8FzCTflUy7ZF-102" value="(0,N)" style="text;html=1;strokeColor=none;fillColor=none;align=center;verticalAlign=middle;whiteSpace=wrap;rounded=0;" vertex="1" parent="8RtSeTxi8FzCTflUy7ZF-100">
          <mxGeometry x="30" y="15" width="30" height="15" as="geometry" />
        </mxCell>
        <mxCell id="8RtSeTxi8FzCTflUy7ZF-103" value="Originale&lt;br&gt;(0,N)" style="text;html=1;strokeColor=none;fillColor=none;align=right;verticalAlign=middle;whiteSpace=wrap;rounded=0;spacing=2;horizontal=1;spacingTop=0;" vertex="1" parent="1">
          <mxGeometry x="1507.5" y="817.5" width="60" height="32.5" as="geometry" />
        </mxCell>
        <mxCell id="8RtSeTxi8FzCTflUy7ZF-104" value="Titolo" style="text;html=1;strokeColor=none;fillColor=none;align=center;verticalAlign=middle;whiteSpace=wrap;rounded=0;rotation=30;" vertex="1" parent="1">
          <mxGeometry x="1527.5" y="940" width="50" height="20" as="geometry" />
        </mxCell>
        <mxCell id="8RtSeTxi8FzCTflUy7ZF-105" style="rounded=0;orthogonalLoop=1;jettySize=auto;html=1;startArrow=oval;startFill=0;endArrow=none;endFill=0;exitX=0.25;exitY=0;exitDx=0;exitDy=0;sourcePerimeterSpacing=0;edgeStyle=orthogonalEdgeStyle;entryX=0.075;entryY=0.998;entryDx=0;entryDy=0;entryPerimeter=0;" edge="1" parent="1" source="8RtSeTxi8FzCTflUy7ZF-104" target="8RtSeTxi8FzCTflUy7ZF-98">
          <mxGeometry x="-500" y="-320" as="geometry">
            <mxPoint x="-429.97038105676666" y="-141.8301270189222" as="sourcePoint" />
            <mxPoint x="-430" y="-166.33974596215558" as="targetPoint" />
          </mxGeometry>
        </mxCell>
        <mxCell id="8RtSeTxi8FzCTflUy7ZF-106" style="rounded=0;orthogonalLoop=1;jettySize=auto;html=1;startArrow=oval;startFill=0;endArrow=none;endFill=0;exitX=0.25;exitY=0;exitDx=0;exitDy=0;sourcePerimeterSpacing=0;edgeStyle=orthogonalEdgeStyle;entryX=0.344;entryY=1.007;entryDx=0;entryDy=0;entryPerimeter=0;" edge="1" parent="1" target="8RtSeTxi8FzCTflUy7ZF-98">
          <mxGeometry x="-500" y="-320" as="geometry">
            <mxPoint x="1579.0146189432335" y="934.5141913943144" as="sourcePoint" />
            <mxPoint x="-400" y="-166.3397459621557" as="targetPoint" />
          </mxGeometry>
        </mxCell>
        <mxCell id="8RtSeTxi8FzCTflUy7ZF-107" value="" style="endArrow=none;html=1;startArrow=oval;startFill=1;" edge="1" parent="1">
          <mxGeometry x="-500" y="-320" width="50" height="50" as="geometry">
            <mxPoint x="1534.5" y="920" as="sourcePoint" />
            <mxPoint x="1587.5" y="920" as="targetPoint" />
          </mxGeometry>
        </mxCell>
        <mxCell id="8RtSeTxi8FzCTflUy7ZF-108" value="Anno" style="text;html=1;strokeColor=none;fillColor=none;align=center;verticalAlign=middle;whiteSpace=wrap;rounded=0;rotation=30;" vertex="1" parent="1">
          <mxGeometry x="1587.5" y="940.1199999999999" width="50" height="20" as="geometry" />
        </mxCell>
        <mxCell id="8RtSeTxi8FzCTflUy7ZF-109" style="rounded=0;orthogonalLoop=1;jettySize=auto;html=1;startArrow=oval;startFill=0;endArrow=none;endFill=0;exitX=0.25;exitY=0;exitDx=0;exitDy=0;sourcePerimeterSpacing=0;edgeStyle=orthogonalEdgeStyle;entryX=0.075;entryY=0.998;entryDx=0;entryDy=0;entryPerimeter=0;" edge="1" parent="1" source="8RtSeTxi8FzCTflUy7ZF-108">
          <mxGeometry x="-500" y="-320" as="geometry">
            <mxPoint x="-369.97038105676666" y="-141.7101270189222" as="sourcePoint" />
            <mxPoint x="1606.5" y="910" as="targetPoint" />
          </mxGeometry>
        </mxCell>
        <mxCell id="8RtSeTxi8FzCTflUy7ZF-110" value="Tipo" style="text;html=1;strokeColor=none;fillColor=none;align=center;verticalAlign=middle;whiteSpace=wrap;rounded=0;rotation=30;" vertex="1" parent="1">
          <mxGeometry x="1614.5" y="940" width="50" height="20" as="geometry" />
        </mxCell>
        <mxCell id="8RtSeTxi8FzCTflUy7ZF-111" style="rounded=0;orthogonalLoop=1;jettySize=auto;html=1;startArrow=oval;startFill=0;endArrow=none;endFill=0;exitX=0.25;exitY=0;exitDx=0;exitDy=0;sourcePerimeterSpacing=0;edgeStyle=orthogonalEdgeStyle;entryX=0.075;entryY=0.998;entryDx=0;entryDy=0;entryPerimeter=0;" edge="1" parent="1" source="8RtSeTxi8FzCTflUy7ZF-110">
          <mxGeometry x="-500" y="-320" as="geometry">
            <mxPoint x="-342.97038105676666" y="-141.8301270189222" as="sourcePoint" />
            <mxPoint x="1633.5" y="909.8800000000006" as="targetPoint" />
          </mxGeometry>
        </mxCell>
        <mxCell id="8RtSeTxi8FzCTflUy7ZF-112" value="(1,N)" style="text;html=1;strokeColor=none;fillColor=none;align=center;verticalAlign=middle;whiteSpace=wrap;rounded=0;" vertex="1" parent="1">
          <mxGeometry x="1667.5" y="855" width="23" height="20" as="geometry" />
        </mxCell>
        <mxCell id="8RtSeTxi8FzCTflUy7ZF-113" value="Costo Noleggio" style="text;html=1;strokeColor=none;fillColor=none;align=center;verticalAlign=middle;whiteSpace=wrap;rounded=0;rotation=330;" vertex="1" parent="1">
          <mxGeometry x="1617.5" y="782.5" width="87" height="20" as="geometry" />
        </mxCell>
        <mxCell id="8RtSeTxi8FzCTflUy7ZF-114" value="Costo Giornaliero" style="text;html=1;strokeColor=none;fillColor=none;align=center;verticalAlign=middle;whiteSpace=wrap;rounded=0;rotation=330;" vertex="1" parent="1">
          <mxGeometry x="1637.5" y="782.5" width="110" height="20" as="geometry" />
        </mxCell>
        <mxCell id="8RtSeTxi8FzCTflUy7ZF-115" style="rounded=0;orthogonalLoop=1;jettySize=auto;html=1;startArrow=none;startFill=0;endArrow=oval;endFill=0;exitX=0.25;exitY=0;exitDx=0;exitDy=0;sourcePerimeterSpacing=0;edgeStyle=orthogonalEdgeStyle;entryX=0.075;entryY=0.998;entryDx=0;entryDy=0;entryPerimeter=0;" edge="1" parent="1">
          <mxGeometry x="-500" y="-320" as="geometry">
            <mxPoint x="1635.074682452694" y="849.999745962155" as="sourcePoint" />
            <mxPoint x="1634.8999999999996" y="824.7900000000004" as="targetPoint" />
          </mxGeometry>
        </mxCell>
        <mxCell id="8RtSeTxi8FzCTflUy7ZF-116" style="rounded=0;orthogonalLoop=1;jettySize=auto;html=1;startArrow=none;startFill=0;endArrow=oval;endFill=0;exitX=0.25;exitY=0;exitDx=0;exitDy=0;sourcePerimeterSpacing=0;edgeStyle=orthogonalEdgeStyle;entryX=0.075;entryY=0.998;entryDx=0;entryDy=0;entryPerimeter=0;" edge="1" parent="1">
          <mxGeometry x="-500" y="-320" as="geometry">
            <mxPoint x="1650.9746824526947" y="849.999745962155" as="sourcePoint" />
            <mxPoint x="1650.7999999999993" y="824.7900000000004" as="targetPoint" />
          </mxGeometry>
        </mxCell>
        <mxCell id="8RtSeTxi8FzCTflUy7ZF-119" value="TELEFONO" style="rounded=1;whiteSpace=wrap;html=1;" vertex="1" parent="1">
          <mxGeometry x="1100" y="40" width="120" height="60" as="geometry" />
        </mxCell>
        <mxCell id="8RtSeTxi8FzCTflUy7ZF-120" value="EMAIL" style="rounded=1;whiteSpace=wrap;html=1;" vertex="1" parent="1">
          <mxGeometry x="1297.5" y="40" width="120" height="60" as="geometry" />
        </mxCell>
        <mxCell id="8RtSeTxi8FzCTflUy7ZF-121" value="INDIRIZZO" style="rounded=1;whiteSpace=wrap;html=1;" vertex="1" parent="1">
          <mxGeometry x="1497.5" y="40" width="120" height="60" as="geometry" />
        </mxCell>
        <mxCell id="8RtSeTxi8FzCTflUy7ZF-123" style="edgeStyle=none;rounded=0;orthogonalLoop=1;jettySize=auto;html=1;entryX=0.5;entryY=0;entryDx=0;entryDy=0;startArrow=none;startFill=0;endArrow=none;endFill=0;fillColor=#000000;exitX=0.5;exitY=1;exitDx=0;exitDy=0;" edge="1" parent="1" source="8RtSeTxi8FzCTflUy7ZF-125" target="8RtSeTxi8FzCTflUy7ZF-127">
          <mxGeometry relative="1" as="geometry" />
        </mxCell>
        <mxCell id="8RtSeTxi8FzCTflUy7ZF-124" style="edgeStyle=orthogonalEdgeStyle;rounded=0;orthogonalLoop=1;jettySize=auto;html=1;startArrow=none;startFill=0;endArrow=none;endFill=0;fillColor=#000000;exitX=0.5;exitY=0;exitDx=0;exitDy=0;entryX=1;entryY=1;entryDx=0;entryDy=0;" edge="1" parent="1" source="8RtSeTxi8FzCTflUy7ZF-125" target="8RtSeTxi8FzCTflUy7ZF-136">
          <mxGeometry relative="1" as="geometry">
            <mxPoint x="2030" y="338" as="targetPoint" />
            <Array as="points">
              <mxPoint x="1940" y="338" />
            </Array>
          </mxGeometry>
        </mxCell>
        <mxCell id="8RtSeTxi8FzCTflUy7ZF-125" value="EFFETTUA" style="rhombus;whiteSpace=wrap;html=1;" vertex="1" parent="1">
          <mxGeometry x="1880" y="430" width="120" height="80" as="geometry" />
        </mxCell>
        <mxCell id="8RtSeTxi8FzCTflUy7ZF-126" value="" style="group" vertex="1" connectable="0" parent="1">
          <mxGeometry x="1840" y="560" width="170" height="150" as="geometry" />
        </mxCell>
        <mxCell id="8RtSeTxi8FzCTflUy7ZF-127" value="NOLEGGIO" style="rounded=1;whiteSpace=wrap;html=1;" vertex="1" parent="8RtSeTxi8FzCTflUy7ZF-126">
          <mxGeometry x="40" y="29.999999999999943" width="120" height="60" as="geometry" />
        </mxCell>
        <mxCell id="8RtSeTxi8FzCTflUy7ZF-128" value="Data Resistuzione" style="text;html=1;strokeColor=none;fillColor=none;align=center;verticalAlign=middle;whiteSpace=wrap;rounded=0;rotation=0;" vertex="1" parent="8RtSeTxi8FzCTflUy7ZF-126">
          <mxGeometry x="110" y="110" width="60" height="40" as="geometry" />
        </mxCell>
        <mxCell id="8RtSeTxi8FzCTflUy7ZF-129" style="rounded=0;orthogonalLoop=1;jettySize=auto;html=1;startArrow=oval;startFill=0;endArrow=none;endFill=0;exitX=0.5;exitY=0;exitDx=0;exitDy=0;entryX=0.75;entryY=1;entryDx=0;entryDy=0;sourcePerimeterSpacing=0;" edge="1" parent="8RtSeTxi8FzCTflUy7ZF-126" source="8RtSeTxi8FzCTflUy7ZF-128">
          <mxGeometry relative="1" as="geometry">
            <mxPoint x="-2425.34" y="520" as="sourcePoint" />
            <mxPoint x="140" y="90" as="targetPoint" />
          </mxGeometry>
        </mxCell>
        <mxCell id="8RtSeTxi8FzCTflUy7ZF-130" value="(1,1)" style="text;html=1;strokeColor=none;fillColor=none;align=center;verticalAlign=middle;whiteSpace=wrap;rounded=0;" vertex="1" parent="8RtSeTxi8FzCTflUy7ZF-126">
          <mxGeometry x="100" width="40" height="30" as="geometry" />
        </mxCell>
        <mxCell id="8RtSeTxi8FzCTflUy7ZF-131" value="ID Noleggio" style="text;html=1;strokeColor=none;fillColor=none;align=center;verticalAlign=middle;whiteSpace=wrap;rounded=0;rotation=0;" vertex="1" parent="8RtSeTxi8FzCTflUy7ZF-126">
          <mxGeometry x="30" y="110" width="60" height="40" as="geometry" />
        </mxCell>
        <mxCell id="8RtSeTxi8FzCTflUy7ZF-132" style="rounded=0;orthogonalLoop=1;jettySize=auto;html=1;startArrow=oval;startFill=1;endArrow=none;endFill=0;exitX=0.5;exitY=0;exitDx=0;exitDy=0;sourcePerimeterSpacing=0;entryX=0.25;entryY=1;entryDx=0;entryDy=0;" edge="1" parent="8RtSeTxi8FzCTflUy7ZF-126" source="8RtSeTxi8FzCTflUy7ZF-131">
          <mxGeometry relative="1" as="geometry">
            <mxPoint x="-2177.84" y="500" as="sourcePoint" />
            <mxPoint x="60" y="90" as="targetPoint" />
          </mxGeometry>
        </mxCell>
        <mxCell id="8RtSeTxi8FzCTflUy7ZF-133" value="(1,1)" style="text;html=1;strokeColor=none;fillColor=none;align=center;verticalAlign=middle;whiteSpace=wrap;rounded=0;" vertex="1" parent="8RtSeTxi8FzCTflUy7ZF-126">
          <mxGeometry y="30" width="40" height="30" as="geometry" />
        </mxCell>
        <mxCell id="8RtSeTxi8FzCTflUy7ZF-134" value="" style="group" vertex="1" connectable="0" parent="1">
          <mxGeometry x="1991" y="219.9955239862686" width="229.965242257633" height="240.22528048904843" as="geometry" />
        </mxCell>
        <mxCell id="8RtSeTxi8FzCTflUy7ZF-135" value="CLIENTE" style="rounded=1;whiteSpace=wrap;html=1;" vertex="1" parent="8RtSeTxi8FzCTflUy7ZF-134">
          <mxGeometry x="40" y="87.83447601373138" width="120" height="60" as="geometry" />
        </mxCell>
        <mxCell id="8RtSeTxi8FzCTflUy7ZF-136" value="(1,N)" style="text;html=1;strokeColor=none;fillColor=none;align=center;verticalAlign=middle;whiteSpace=wrap;rounded=0;" vertex="1" parent="8RtSeTxi8FzCTflUy7ZF-134">
          <mxGeometry y="90" width="40" height="27.83" as="geometry" />
        </mxCell>
        <mxCell id="8RtSeTxi8FzCTflUy7ZF-137" value="CF Cliente" style="text;html=1;strokeColor=none;fillColor=none;align=center;verticalAlign=middle;whiteSpace=wrap;rounded=0;rotation=330;" vertex="1" parent="8RtSeTxi8FzCTflUy7ZF-134">
          <mxGeometry x="44.4" y="30.48" width="60.67" height="17.31" as="geometry" />
        </mxCell>
        <mxCell id="8RtSeTxi8FzCTflUy7ZF-138" style="rounded=0;orthogonalLoop=1;jettySize=auto;html=1;startArrow=oval;startFill=1;endArrow=none;endFill=0;sourcePerimeterSpacing=0;edgeStyle=orthogonalEdgeStyle;entryX=0.105;entryY=0.004;entryDx=0;entryDy=0;entryPerimeter=0;exitX=0;exitY=1;exitDx=0;exitDy=0;" edge="1" parent="8RtSeTxi8FzCTflUy7ZF-134" source="8RtSeTxi8FzCTflUy7ZF-137" target="8RtSeTxi8FzCTflUy7ZF-135">
          <mxGeometry relative="1" as="geometry">
            <mxPoint x="22.5" y="47.834476013731376" as="sourcePoint" />
            <mxPoint x="122.5" y="60.834476013731376" as="targetPoint" />
          </mxGeometry>
        </mxCell>
        <mxCell id="8RtSeTxi8FzCTflUy7ZF-139" value="Nome Cliente" style="text;html=1;strokeColor=none;fillColor=none;align=center;verticalAlign=middle;whiteSpace=wrap;rounded=0;rotation=330;" vertex="1" parent="8RtSeTxi8FzCTflUy7ZF-134">
          <mxGeometry x="72.5" y="31.424476013731407" width="80" height="9.48" as="geometry" />
        </mxCell>
        <mxCell id="8RtSeTxi8FzCTflUy7ZF-140" value="Cognome Cliente" style="text;html=1;strokeColor=none;fillColor=none;align=center;verticalAlign=middle;whiteSpace=wrap;rounded=0;rotation=330;" vertex="1" parent="8RtSeTxi8FzCTflUy7ZF-134">
          <mxGeometry x="106.87000000000012" y="24.12447601373134" width="100" height="13.07" as="geometry" />
        </mxCell>
        <mxCell id="8RtSeTxi8FzCTflUy7ZF-141" style="rounded=0;orthogonalLoop=1;jettySize=auto;html=1;startArrow=oval;startFill=0;endArrow=none;endFill=0;sourcePerimeterSpacing=0;edgeStyle=orthogonalEdgeStyle;entryX=0.105;entryY=0.004;entryDx=0;entryDy=0;entryPerimeter=0;exitX=0;exitY=1;exitDx=0;exitDy=0;" edge="1" parent="8RtSeTxi8FzCTflUy7ZF-134">
          <mxGeometry relative="1" as="geometry">
            <mxPoint x="87.5" y="61.56406455688085" as="sourcePoint" />
            <mxPoint x="87.5" y="87.83447601373138" as="targetPoint" />
          </mxGeometry>
        </mxCell>
        <mxCell id="8RtSeTxi8FzCTflUy7ZF-142" style="rounded=0;orthogonalLoop=1;jettySize=auto;html=1;startArrow=oval;startFill=0;endArrow=none;endFill=0;sourcePerimeterSpacing=0;edgeStyle=orthogonalEdgeStyle;entryX=0.105;entryY=0.004;entryDx=0;entryDy=0;entryPerimeter=0;exitX=0;exitY=1;exitDx=0;exitDy=0;" edge="1" parent="8RtSeTxi8FzCTflUy7ZF-134">
          <mxGeometry relative="1" as="geometry">
            <mxPoint x="118.9641193761995" y="61.56406455688085" as="sourcePoint" />
            <mxPoint x="118.77000000000044" y="87.83447601373138" as="targetPoint" />
          </mxGeometry>
        </mxCell>
        <mxCell id="8RtSeTxi8FzCTflUy7ZF-143" value="Data di Nascita" style="text;html=1;strokeColor=none;fillColor=none;align=center;verticalAlign=middle;whiteSpace=wrap;rounded=0;rotation=330;" vertex="1" parent="8RtSeTxi8FzCTflUy7ZF-134">
          <mxGeometry x="142.5" y="26.624476013731396" width="90" height="13.07" as="geometry" />
        </mxCell>
        <mxCell id="8RtSeTxi8FzCTflUy7ZF-144" style="rounded=0;orthogonalLoop=1;jettySize=auto;html=1;startArrow=oval;startFill=0;endArrow=none;endFill=0;sourcePerimeterSpacing=0;edgeStyle=orthogonalEdgeStyle;entryX=0.105;entryY=0.004;entryDx=0;entryDy=0;entryPerimeter=0;exitX=0;exitY=1;exitDx=0;exitDy=0;" edge="1" parent="8RtSeTxi8FzCTflUy7ZF-134">
          <mxGeometry relative="1" as="geometry">
            <mxPoint x="153.92411937619931" y="61.56406455688085" as="sourcePoint" />
            <mxPoint x="153.73000000000025" y="87.83447601373138" as="targetPoint" />
          </mxGeometry>
        </mxCell>
        <mxCell id="8RtSeTxi8FzCTflUy7ZF-145" value="Indirizzo Cliente" style="text;html=1;strokeColor=none;fillColor=none;align=center;verticalAlign=middle;whiteSpace=wrap;rounded=0;rotation=30;" vertex="1" parent="8RtSeTxi8FzCTflUy7ZF-134">
          <mxGeometry x="36.549999999999955" y="188.32447601373138" width="107.03" height="26.76" as="geometry" />
        </mxCell>
        <mxCell id="8RtSeTxi8FzCTflUy7ZF-146" style="rounded=0;orthogonalLoop=1;jettySize=auto;html=1;startArrow=none;startFill=0;endArrow=oval;endFill=0;sourcePerimeterSpacing=0;edgeStyle=orthogonalEdgeStyle;entryX=0.105;entryY=0.004;entryDx=0;entryDy=0;entryPerimeter=0;exitX=0;exitY=1;exitDx=0;exitDy=0;" edge="1" parent="8RtSeTxi8FzCTflUy7ZF-134">
          <mxGeometry relative="1" as="geometry">
            <mxPoint x="52.694119376199296" y="147.83406455688086" as="sourcePoint" />
            <mxPoint x="52.50000000000023" y="174.1044760137314" as="targetPoint" />
          </mxGeometry>
        </mxCell>
        <mxCell id="8RtSeTxi8FzCTflUy7ZF-147" value="Telefono&amp;nbsp;Cliente" style="text;html=1;strokeColor=none;fillColor=none;align=center;verticalAlign=middle;whiteSpace=wrap;rounded=0;rotation=30;spacingLeft=2;spacingTop=0;" vertex="1" parent="8RtSeTxi8FzCTflUy7ZF-134">
          <mxGeometry x="65.18000000000006" y="188.07447601373138" width="107.39" height="27.12" as="geometry" />
        </mxCell>
        <mxCell id="8RtSeTxi8FzCTflUy7ZF-148" style="rounded=0;orthogonalLoop=1;jettySize=auto;html=1;startArrow=none;startFill=0;endArrow=oval;endFill=0;sourcePerimeterSpacing=0;edgeStyle=orthogonalEdgeStyle;entryX=0.105;entryY=0.004;entryDx=0;entryDy=0;entryPerimeter=0;exitX=0;exitY=1;exitDx=0;exitDy=0;" edge="1" parent="8RtSeTxi8FzCTflUy7ZF-134">
          <mxGeometry relative="1" as="geometry">
            <mxPoint x="87.5" y="147.83406455688083" as="sourcePoint" />
            <mxPoint x="87.5" y="174.10447601373136" as="targetPoint" />
          </mxGeometry>
        </mxCell>
        <mxCell id="8RtSeTxi8FzCTflUy7ZF-149" value="Cellulare Cliente" style="text;html=1;strokeColor=none;fillColor=none;align=center;verticalAlign=middle;whiteSpace=wrap;rounded=0;rotation=30;" vertex="1" parent="8RtSeTxi8FzCTflUy7ZF-134">
          <mxGeometry x="103.44000000000005" y="196.35447601373136" width="110" height="11.98" as="geometry" />
        </mxCell>
        <mxCell id="8RtSeTxi8FzCTflUy7ZF-150" style="rounded=0;orthogonalLoop=1;jettySize=auto;html=1;startArrow=none;startFill=0;endArrow=oval;endFill=0;sourcePerimeterSpacing=0;edgeStyle=orthogonalEdgeStyle;entryX=0.105;entryY=0.004;entryDx=0;entryDy=0;entryPerimeter=0;exitX=0;exitY=1;exitDx=0;exitDy=0;" edge="1" parent="8RtSeTxi8FzCTflUy7ZF-134">
          <mxGeometry relative="1" as="geometry">
            <mxPoint x="119.72411937619927" y="147.83406455688083" as="sourcePoint" />
            <mxPoint x="119.5300000000002" y="174.10447601373136" as="targetPoint" />
          </mxGeometry>
        </mxCell>
        <mxCell id="8RtSeTxi8FzCTflUy7ZF-151" value="Email Cliente" style="text;html=1;strokeColor=none;fillColor=none;align=center;verticalAlign=middle;whiteSpace=wrap;rounded=0;rotation=30;" vertex="1" parent="8RtSeTxi8FzCTflUy7ZF-134">
          <mxGeometry x="137.8900000000001" y="187.32447601373138" width="92.29" height="23.87" as="geometry" />
        </mxCell>
        <mxCell id="8RtSeTxi8FzCTflUy7ZF-152" style="rounded=0;orthogonalLoop=1;jettySize=auto;html=1;startArrow=none;startFill=0;endArrow=oval;endFill=0;sourcePerimeterSpacing=0;edgeStyle=orthogonalEdgeStyle;entryX=0.105;entryY=0.004;entryDx=0;entryDy=0;entryPerimeter=0;exitX=0;exitY=1;exitDx=0;exitDy=0;" edge="1" parent="8RtSeTxi8FzCTflUy7ZF-134">
          <mxGeometry relative="1" as="geometry">
            <mxPoint x="153.76411937619923" y="147.83406455688083" as="sourcePoint" />
            <mxPoint x="153.57000000000016" y="174.10447601373136" as="targetPoint" />
          </mxGeometry>
        </mxCell>
        <mxCell id="8RtSeTxi8FzCTflUy7ZF-153" value="(0,N)" style="text;html=1;strokeColor=none;fillColor=none;align=center;verticalAlign=middle;whiteSpace=wrap;rounded=0;" vertex="1" parent="8RtSeTxi8FzCTflUy7ZF-134">
          <mxGeometry x="52.5" y="149.31447601373137" width="30" height="8.52" as="geometry" />
        </mxCell>
        <mxCell id="8RtSeTxi8FzCTflUy7ZF-154" value="(0,N)" style="text;html=1;strokeColor=none;fillColor=none;align=center;verticalAlign=middle;whiteSpace=wrap;rounded=0;" vertex="1" parent="8RtSeTxi8FzCTflUy7ZF-134">
          <mxGeometry x="83.15000000000009" y="148.57447601373138" width="39.35" height="10" as="geometry" />
        </mxCell>
        <mxCell id="8RtSeTxi8FzCTflUy7ZF-155" value="(0,N)" style="text;html=1;strokeColor=none;fillColor=none;align=center;verticalAlign=middle;whiteSpace=wrap;rounded=0;" vertex="1" parent="8RtSeTxi8FzCTflUy7ZF-134">
          <mxGeometry x="152.5" y="149.31447601373137" width="30.85" height="10" as="geometry" />
        </mxCell>
        <mxCell id="8RtSeTxi8FzCTflUy7ZF-156" value="(0,N)" style="text;html=1;strokeColor=none;fillColor=none;align=center;verticalAlign=middle;whiteSpace=wrap;rounded=0;" vertex="1" parent="8RtSeTxi8FzCTflUy7ZF-134">
          <mxGeometry x="123.57999999999993" y="150.05447601373137" width="20" height="8.52" as="geometry" />
        </mxCell>
        <mxCell id="8RtSeTxi8FzCTflUy7ZF-161" style="edgeStyle=orthogonalEdgeStyle;rounded=0;orthogonalLoop=1;jettySize=auto;html=1;entryX=1;entryY=0.5;entryDx=0;entryDy=0;endArrow=none;endFill=0;" edge="1" parent="1" source="8RtSeTxi8FzCTflUy7ZF-157" target="8RtSeTxi8FzCTflUy7ZF-159">
          <mxGeometry relative="1" as="geometry" />
        </mxCell>
        <mxCell id="8RtSeTxi8FzCTflUy7ZF-157" value="ATTORE" style="rounded=1;whiteSpace=wrap;html=1;" vertex="1" parent="1">
          <mxGeometry x="1880" y="850" width="120" height="60" as="geometry" />
        </mxCell>
        <mxCell id="8RtSeTxi8FzCTflUy7ZF-159" value="RECITA" style="rhombus;whiteSpace=wrap;html=1;" vertex="1" parent="1">
          <mxGeometry x="1710" y="840" width="120" height="80" as="geometry" />
        </mxCell>
        <mxCell id="8RtSeTxi8FzCTflUy7ZF-162" value="(1,N)" style="text;html=1;strokeColor=none;fillColor=none;align=center;verticalAlign=middle;whiteSpace=wrap;rounded=0;" vertex="1" parent="1">
          <mxGeometry x="1850" y="855" width="23" height="20" as="geometry" />
        </mxCell>
        <mxCell id="8RtSeTxi8FzCTflUy7ZF-163" style="rounded=0;orthogonalLoop=1;jettySize=auto;html=1;entryX=0.75;entryY=0;entryDx=0;entryDy=0;startArrow=oval;startFill=0;endArrow=none;endFill=0;exitX=0.5;exitY=1;exitDx=0;exitDy=0;" edge="1" parent="1" source="8RtSeTxi8FzCTflUy7ZF-164">
          <mxGeometry x="209.5" y="555" as="geometry">
            <mxPoint x="1910" y="850" as="targetPoint" />
          </mxGeometry>
        </mxCell>
        <mxCell id="8RtSeTxi8FzCTflUy7ZF-164" value="Nome&lt;br&gt;Attore" style="text;html=1;strokeColor=none;fillColor=none;align=center;verticalAlign=middle;whiteSpace=wrap;rounded=0;labelPosition=center;verticalLabelPosition=middle;rotation=0;direction=east;" vertex="1" parent="1">
          <mxGeometry x="1880" y="775" width="60" height="55" as="geometry" />
        </mxCell>
        <mxCell id="8RtSeTxi8FzCTflUy7ZF-165" style="rounded=0;orthogonalLoop=1;jettySize=auto;html=1;entryX=0.75;entryY=0;entryDx=0;entryDy=0;startArrow=oval;startFill=0;endArrow=none;endFill=0;exitX=0.5;exitY=1;exitDx=0;exitDy=0;" edge="1" parent="1" source="8RtSeTxi8FzCTflUy7ZF-166">
          <mxGeometry x="260.5" y="555" as="geometry">
            <mxPoint x="1961" y="850" as="targetPoint" />
          </mxGeometry>
        </mxCell>
        <mxCell id="8RtSeTxi8FzCTflUy7ZF-166" value="Cognome&lt;br&gt;Attore" style="text;html=1;strokeColor=none;fillColor=none;align=center;verticalAlign=middle;whiteSpace=wrap;rounded=0;labelPosition=center;verticalLabelPosition=middle;rotation=0;direction=east;" vertex="1" parent="1">
          <mxGeometry x="1931" y="775" width="60" height="55" as="geometry" />
        </mxCell>
        <mxCell id="8RtSeTxi8FzCTflUy7ZF-167" value="" style="endArrow=none;html=1;startArrow=oval;startFill=1;" edge="1" parent="1">
          <mxGeometry x="-136" y="-400" width="50" height="50" as="geometry">
            <mxPoint x="1898.5" y="840" as="sourcePoint" />
            <mxPoint x="1970" y="840" as="targetPoint" />
          </mxGeometry>
        </mxCell>
      </root>
    </mxGraphModel>
  </diagram>
</mxfile>
